<svg width="15" height="15" viewBox="0 0 15 15" fill="none" xmlns="http://www.w3.org/2000/svg">
<path d="M6.20577 2.19768C3.99663 2.19768 2.20577 3.98854 2.20577 6.19768C2.20577 8.40682 3.99663 10.1977 6.20577 10.1977C8.41491 10.1977 10.2058 8.40682 10.2058 6.19768C10.2058 3.98854 8.41491 2.19768 6.20577 2.19768ZM0.872437 6.19768C0.872437 3.25216 3.26025 0.864349 6.20577 0.864349C9.15129 0.864349 11.5391 3.25216 11.5391 6.19768C11.5391 7.43016 11.121 8.56499 10.419 9.46811L14.0105 13.0596C14.2709 13.32 14.2709 13.7421 14.0105 14.0024C13.7502 14.2628 13.328 14.2628 13.0677 14.0024L9.4762 10.4109C8.57308 11.113 7.43824 11.531 6.20577 11.531C3.26025 11.531 0.872437 9.1432 0.872437 6.19768Z" fill="#666666"/>
</svg>
